<?xml version="1.0" encoding="UTF-8" standalone="no"?>
<!-- Created with Inkscape (http://www.inkscape.org/) -->
<svg
   xmlns:dc="http://purl.org/dc/elements/1.1/"
   xmlns:cc="http://web.resource.org/cc/"
   xmlns:rdf="http://www.w3.org/1999/02/22-rdf-syntax-ns#"
   xmlns:svg="http://www.w3.org/2000/svg"
   xmlns="http://www.w3.org/2000/svg"
   xmlns:sodipodi="http://sodipodi.sourceforge.net/DTD/sodipodi-0.dtd"
   xmlns:inkscape="http://www.inkscape.org/namespaces/inkscape"
   height="160"
   width="330"
   id="svg2"
   sodipodi:version="0.32"
   inkscape:version="0.45.1"
   version="1.0"
   sodipodi:docbase="C:\Documents and Settings\SarXos\Pulpit"
   sodipodi:docname="background.svg"
   inkscape:output_extension="org.inkscape.output.svg.inkscape">
  <defs
     id="defs4" />
  <sodipodi:namedview
     id="base"
     pagecolor="#ffffff"
     bordercolor="#666666"
     borderopacity="1.0"
     inkscape:pageopacity="0.0"
     inkscape:pageshadow="2"
     inkscape:cx="152.85714"
     inkscape:cy="105.98333"
     inkscape:zoom="1.6290123"
     inkscape:document-units="px"
     inkscape:current-layer="layer1"
     width="330px"
     height="160px"
     inkscape:window-width="836"
     inkscape:window-height="573"
     inkscape:window-x="44"
     inkscape:window-y="58" />
  <metadata
     id="metadata7">
    <rdf:RDF>
      <cc:Work
         rdf:about="">
        <dc:format>image/svg+xml</dc:format>
        <dc:type
           rdf:resource="http://purl.org/dc/dcmitype/StillImage" />
      </cc:Work>
    </rdf:RDF>
  </metadata>
  <g
     inkscape:groupmode="layer"
     inkscape:label="Warstwa 1"
     id="layer1">
    <rect
       style="opacity:1;fill:#ffb380;fill-opacity:1;stroke:none;stroke-width:1;stroke-miterlimit:4;stroke-dasharray:none;stroke-opacity:1"
       id="rect4100"
       width="330"
       height="160"
       x="0"
       y="-1.563116e-014"
       inkscape:export-xdpi="90"
       inkscape:export-ydpi="90"
       inkscape:export-filename="C:\Documents and Settings\SarXos\pulpit\rect.png" />
    <path
       style="opacity:1;fill:#ffffff;fill-opacity:1;stroke:none;stroke-width:1;stroke-miterlimit:4;stroke-dasharray:none;stroke-opacity:1"
       id="path4106"
       d="M -44.203572,110.89869 C -36.542624,100.69605 -29.256964,90.220422 -21.823645,79.852675 C 0.58917234,48.668216 27.639649,22.336932 60.059279,1.8749921 C 92.122229,-18.572952 125.18116,-29.952288 162.68548,-21.744365 C 177.74526,-15.608054 182.00923,-4.3435311 177.23894,10.451721 C 172.63523,19.857849 165.1933,27.184988 157.31896,33.873085 C 150.87093,38.955029 158.89656,32.676476 154.07854,36.330933 L 126.31206,46.998401 C 128.97698,45.717071 127.56178,46.485064 130.51162,44.611521 C 138.94013,38.381061 146.94084,31.403562 152.16816,22.16021 C 157.2149,9.4155679 154.76515,-0.89920325 141.63307,-7.2209772 C 113.72153,-15.132722 103.49673,-7.2706457 77.204154,-2.8139802 C 75.991947,-2.6085076 78.759088,-4.7189334 79.536554,-5.67141 C 48.029328,13.505834 20.652119,37.83622 1.4060384,69.720051 C -4.7509131,79.228975 -11.064605,88.681476 -16.449024,98.657783 L -44.203572,110.89869 z " />
    <path
       style="opacity:1;fill:#ffffff;fill-opacity:1;stroke:none;stroke-width:1;stroke-miterlimit:4;stroke-dasharray:none;stroke-opacity:1"
       id="path4112"
       d="M 76.546401,50.397703 C 76.55843,50.330264 73.180423,52.366299 74.026323,51.881735 C 120.79591,25.090337 81.994478,48.862762 71.954901,57.051549 C 47.698294,76.886684 28.501311,101.17153 14.007599,128.8044 C 2.3277601,152.33577 0.9415734,171.85686 18.958318,191.68762 C 49.464768,214.02315 86.001435,209.01031 119.5015,197.10672 C 124.74188,194.04863 130.72077,192.0002 135.22265,187.93244 C 136.4847,186.79209 129.46089,189.05546 130.13861,187.49537 C 132.36894,182.36123 137.72426,179.22465 140.98266,174.6731 C 150.23834,161.7442 154.83728,147.98223 158.70497,132.81274 C 160.36228,118.44922 161.5103,100.1736 148.79283,90.299861 C 145.66704,88.836607 142.91176,89.266167 139.88623,90.572963 L 163.47844,72.517014 C 167.15865,72.158858 170.28203,72.798931 173.20813,75.268281 C 184.47983,88.26869 182.0281,107.06854 179.64943,122.81907 C 168.00843,164.77992 144.10762,191.76711 103.04655,209.91028 C 68.216936,221.33053 30.28944,225.89987 -1.731273,204.27771 C -21.883462,183.49287 -20.233765,163.27857 -7.0410267,138.261 C 7.6508415,111.1404 26.034871,86.603145 49.358877,66.197614 C 64.920411,52.357591 80.570885,39.326933 100.59443,31.714885 L 76.546401,50.397703 z " />
    <path
       style="opacity:1;fill:#ffffff;fill-opacity:1;stroke:none;stroke-width:1;stroke-miterlimit:4;stroke-dasharray:none;stroke-opacity:1"
       id="path4114"
       d="M 99.445253,106.37691 C 100.07666,112.38678 102.97663,117.69978 105.87061,122.88457 C 117.05188,140.49482 135.24725,150.38118 153.35249,159.47571 C 182.11357,173.55757 212.25693,177.36058 243.71876,173.83754 C 258.52042,173.80805 270.67647,164.09169 284.11534,160.22052 C 287.82007,159.15334 276.37811,168.31705 273.79948,165.45096 C 271.30862,162.68243 279.66107,160.83337 282.32906,158.23511 C 284.78103,155.84722 286.85531,153.09996 289.11843,150.53238 C 300.51502,135.44399 302.41681,118.92026 298.47614,100.95556 C 294.31778,87.33374 286.2264,76.213729 273.88043,69.15717 C 272.63898,68.63379 271.39752,68.11041 270.15606,67.587031 L 294.04,51.877193 C 295.21731,52.567568 296.39461,53.257943 297.57192,53.948319 C 309.38243,62.586649 316.95163,74.701247 321.52053,88.565649 C 325.86016,107.49197 324.34943,124.65218 312.3507,140.72197 C 290.31986,166.28039 258.62686,181.77855 225.61631,187.27888 C 193.68413,190.35482 163.1985,185.87289 133.8135,172.38294 C 114.45596,163.5998 95.145655,154.09294 81.80472,136.89704 C 78.266261,131.82583 74.951728,126.63717 72.584895,120.90245 L 99.445253,106.37691 z " />
    <path
       style="opacity:1;fill:#ffffff;fill-opacity:1;stroke:none;stroke-width:1;stroke-miterlimit:4;stroke-dasharray:none;stroke-opacity:1"
       id="path4122"
       d="M 245.26086,-6.1416728 C 221.96399,5.9774291 273.68649,-23.616374 251.02816,-9.8043715 C 229.22455,4.131217 214.00675,24.129932 202.12317,46.711052 C 193.11021,72.216175 196.77451,97.631906 210.23431,120.56606 C 216.77725,129.11553 225.23389,134.92394 235.53893,129.65753 C 197.38015,152.81729 216.09926,143.09906 221.75297,131.50812 C 222.45747,130.31689 222.01522,129.31272 221.90635,128.18676 L 248.24251,113.25933 C 248.87446,115.25775 249.41647,116.88932 248.66717,119.03184 C 242.87268,134.70523 227.58621,139.87621 212.86526,147.43052 C 201.32286,150.51588 193.50121,142.86562 187.66583,133.45526 C 176.55232,108.87941 173.41594,82.614879 180.81422,56.324819 C 191.80595,34.359908 205.66815,14.653289 225.76847,0.003431434 C 239.73488,-9.1156403 253.86644,-18.486276 269.361,-24.697615 L 245.26086,-6.1416728 z " />
    <path
       style="opacity:1;fill:#ffffff;fill-opacity:1;stroke:none;stroke-width:1;stroke-miterlimit:4;stroke-dasharray:none;stroke-opacity:1"
       id="path4124"
       d="M 237.99703,48.782881 C 240.04588,43.279514 243.7809,39.302077 248.09864,35.451214 C 276.73522,14.63584 306.06992,7.9309281 340.51193,6.2048909 C 363.10737,7.3036179 385.43318,11.102217 407.57564,15.53866 L 386.05374,30.370283 C 365.31329,23.809068 343.9309,19.298962 322.04114,19.799097 C 303.40465,21.159063 285.06949,23.525523 267.48454,30.254405 C 264.11712,31.542947 254.80707,36.945828 257.61864,34.688647 C 262.6195,30.673879 268.65461,28.152969 274.17259,24.885129 C 270.45534,27.924846 266.69494,31.073909 265.66918,35.98491 L 237.99703,48.782881 z " />
  </g>
</svg>
